<?xml version="1.0" encoding="UTF-8"?>
<svg version="1.1" xmlns="http://www.w3.org/2000/svg" width="1152" height="896">
<path d="M0 0 C380.16 0 760.32 0 1152 0 C1152 295.68 1152 591.36 1152 896 C771.84 896 391.68 896 0 896 C0 600.32 0 304.64 0 0 Z " fill="#646464" transform="translate(0,0)"/>
<path d="M0 0 C2.05642253 -0.00957366 4.1117862 -0.04055582 6.16796875 -0.07226562 C24.16093379 -0.21689249 42.56510547 3.84169629 56.22265625 16.24023438 C56.22265625 16.90023437 56.22265625 17.56023437 56.22265625 18.24023438 C56.88265625 18.24023438 57.54265625 18.24023438 58.22265625 18.24023438 C58.22265625 18.90023437 58.22265625 19.56023437 58.22265625 20.24023438 C58.80015625 20.26085937 59.37765625 20.28148438 59.97265625 20.30273438 C63.53228974 21.785915 64.54577238 24.96137897 66.22265625 28.24023438 C67.24339558 30.05278732 68.26423493 31.86528393 69.28515625 33.67773438 C77.35821255 48.55988362 78.49714358 65.86565985 74.22265625 82.24023438 C68.96936956 98.63123138 68.96936956 98.63123138 61.66015625 102.49023438 C51.9164955 107.45064348 39.84506673 106.27057233 29.66015625 102.99023438 C24.28179088 101.1756967 19.17131485 99.02385484 14.22265625 96.24023438 C14.72578568 90.61885004 15.86948769 85.98283138 18.16015625 80.80273438 C23.85412408 67.82159604 26.33889555 51.08246885 22.2421875 37.25195312 C19.71956556 31.01913646 16.56843247 24.9152406 10.22265625 21.99023438 C9.56265625 21.67570312 8.90265625 21.36117187 8.22265625 21.03710938 C-0.24211283 17.66442795 -11.87422299 18.00901194 -20.4296875 20.99414062 C-30.65560974 26.42187639 -37.1767395 35.54257133 -40.77734375 46.24023438 C-43.98617949 57.01681104 -44.93520011 67.44520744 -44.89086914 78.64697266 C-44.89101517 79.63354355 -44.89116119 80.62011444 -44.89131165 81.63658142 C-44.8906212 84.86125982 -44.88286989 88.08587871 -44.875 91.31054688 C-44.87313273 93.56069914 -44.87171029 95.81085182 -44.87071228 98.06100464 C-44.86691143 103.95622905 -44.85710212 109.85142847 -44.8460083 115.74664307 C-44.83574168 121.77314923 -44.83120345 127.79965947 -44.82617188 133.82617188 C-44.81547748 145.6308703 -44.79843054 157.43555025 -44.77734375 169.24023438 C-43.87976349 169.23801376 -42.98218323 169.23579315 -42.05740356 169.23350525 C-33.6109609 169.21349315 -25.16452616 169.19825553 -16.71806526 169.1884222 C-12.37534705 169.18319691 -8.03264837 169.17610565 -3.68994141 169.16479492 C0.49864012 169.15395352 4.68720281 169.14795487 8.87579727 169.14535713 C10.4762311 169.14350515 12.07666385 169.13988886 13.67708969 169.13450432 C15.91349286 169.12727728 18.14981756 169.12624414 20.38623047 169.12670898 C21.66086151 169.12448837 22.93549255 169.12226776 24.24874878 169.11997986 C27.22265625 169.24023438 27.22265625 169.24023438 29.22265625 170.24023438 C29.22265625 174.86023438 29.22265625 179.48023438 29.22265625 184.24023438 C4.14265625 184.24023438 -20.93734375 184.24023438 -46.77734375 184.24023438 C-46.7380199 221.11651024 -46.68447887 257.99263864 -46.5994228 294.86883144 C-46.58940503 299.21984562 -46.57956095 303.57086018 -46.56982422 307.921875 C-46.56788285 308.78810404 -46.56594147 309.65433308 -46.56394127 310.54681149 C-46.53289829 324.58293433 -46.51593421 338.61904081 -46.50414953 352.65519151 C-46.49174986 367.05161558 -46.46427531 381.44795362 -46.42273068 395.8443234 C-46.39756127 404.73166654 -46.38422897 413.61886706 -46.38591418 422.50624636 C-46.38594387 428.59605444 -46.37136507 434.68571694 -46.34517947 440.77546832 C-46.33049406 444.29191753 -46.32236395 447.80806823 -46.33154106 451.324543 C-46.34131261 455.1331212 -46.32038053 458.94117173 -46.29632568 462.74969482 C-46.30796631 464.42478028 -46.30796631 464.42478028 -46.3198421 466.13370585 C-46.30839451 467.15185477 -46.29694692 468.17000368 -46.28515244 469.21900558 C-46.28363355 470.09843787 -46.28211467 470.97787015 -46.28054976 471.8839519 C-45.60801257 475.03313448 -44.2509529 476.24550365 -41.77734375 478.24023438 C-39.12496414 478.85245087 -39.12496414 478.85245087 -36.18261719 478.78613281 C-35.0617572 478.80585144 -33.94089722 478.82557007 -32.78607178 478.84588623 C-30.97964203 478.84772919 -30.97964203 478.84772919 -29.13671875 478.84960938 C-27.89940002 478.86614563 -26.6620813 478.88268188 -25.38726807 478.89971924 C-22.10582844 478.94005823 -18.82484745 478.96338199 -15.54321289 478.97845459 C-12.19138534 478.99804108 -8.83993061 479.04034334 -5.48828125 479.08007812 C1.08199958 479.1540811 7.65206516 479.20358365 14.22265625 479.24023438 C14.22265625 483.86023438 14.22265625 488.48023438 14.22265625 493.24023438 C-38.57734375 493.24023438 -91.37734375 493.24023438 -145.77734375 493.24023438 C-145.77734375 488.95023438 -145.77734375 484.66023438 -145.77734375 480.24023438 C-144.09777588 480.22621582 -144.09777588 480.22621582 -142.38427734 480.21191406 C-138.21298059 480.17191277 -134.04241353 480.10612632 -129.87158203 480.03271484 C-128.06959436 480.00456384 -126.26748456 479.98332016 -124.46533203 479.96923828 C-121.86818177 479.94772682 -119.2724908 479.90103681 -116.67578125 479.84960938 C-115.87554535 479.84838074 -115.07530945 479.8471521 -114.25082397 479.84588623 C-109.00061614 479.70972672 -105.94718604 478.71225969 -101.77734375 475.24023438 C-100.5660317 472.81761028 -100.64705776 471.28210427 -100.63867855 468.57442284 C-100.63320411 467.58463979 -100.62772966 466.59485675 -100.62208933 465.57508028 C-100.62111122 464.47976759 -100.62013311 463.38445491 -100.61912537 462.25595093 C-100.61418739 461.09859676 -100.60924941 459.94124259 -100.6041618 458.74881709 C-100.59141924 455.52668849 -100.58315304 452.30458334 -100.57673514 449.08243704 C-100.56874533 445.61139779 -100.55504269 442.14038067 -100.54202271 438.6693573 C-100.52023977 432.65235459 -100.50210194 426.63534967 -100.48641777 420.61832809 C-100.46373566 411.91865259 -100.43559056 403.21900156 -100.40609849 394.51934679 C-100.3584022 380.4058123 -100.31514355 366.29226782 -100.2746582 352.17871094 C-100.23531363 338.46613792 -100.19388991 324.75357379 -100.1496582 311.04101562 C-100.14693393 310.19622132 -100.14420966 309.35142702 -100.14140283 308.48103289 C-100.12772353 304.24308189 -100.11400322 300.00513101 -100.10026252 295.7671802 C-99.98626575 260.59155 -99.87946349 225.41590099 -99.77734375 190.24023438 C-101.09734375 189.58023438 -102.41734375 188.92023438 -103.77734375 188.24023438 C-103.77734375 187.58023438 -103.77734375 186.92023438 -103.77734375 186.24023438 C-104.76734375 186.57023438 -105.75734375 186.90023437 -106.77734375 187.24023438 C-106.77734375 186.58023438 -106.77734375 185.92023438 -106.77734375 185.24023438 C-107.35476318 185.27576416 -107.93218262 185.31129395 -108.52709961 185.34790039 C-121.08038025 186.09261814 -133.2368406 186.2302741 -145.77734375 185.24023438 C-145.77734375 180.29023438 -145.77734375 175.34023438 -145.77734375 170.24023438 C-143.46913867 169.08613184 -142.16950099 169.11920468 -139.60302734 169.12670898 C-138.31191544 169.12682228 -138.31191544 169.12682228 -136.99472046 169.12693787 C-136.06447052 169.13209915 -135.13422058 169.13726044 -134.17578125 169.14257812 C-133.22418121 169.14399307 -132.27258118 169.14540802 -131.29214478 169.14686584 C-128.24551278 169.15247425 -125.19895362 169.16502818 -122.15234375 169.17773438 C-120.08984481 169.18274829 -118.02734472 169.18731139 -115.96484375 169.19140625 C-110.90231558 169.20244642 -105.83984202 169.21971671 -100.77734375 169.24023438 C-100.71264893 168.40814453 -100.6479541 167.57605469 -100.58129883 166.71875 C-98.37885503 139.05681215 -95.79470422 111.27122282 -87.52587891 84.65283203 C-86.79501615 82.29719414 -86.10316484 79.93258655 -85.4140625 77.56445312 C-77.93308814 52.71321638 -62.57722987 27.0794551 -40.77734375 12.24023438 C-40.02195312 11.71945313 -39.2665625 11.19867188 -38.48828125 10.66210938 C-26.46439416 2.90728969 -14.08532241 0.03949156 0 0 Z " fill="#010101" transform="translate(397.77734375,104.759765625)"/>
<path d="M0 0 C7.59 0 15.18 0 23 0 C24 1 24 1 24.12025452 3.51197815 C24.1169236 5.18742958 24.1169236 5.18742958 24.11352539 6.89672852 C24.11344986 8.15796036 24.11337433 9.4191922 24.11329651 10.71864319 C24.1081891 12.10539794 24.10297309 13.49215229 24.09765625 14.87890625 C24.09579201 16.28995209 24.09436814 17.70099857 24.09336853 19.11204529 C24.08954379 22.83240535 24.0797139 26.5527266 24.06866455 30.27307129 C24.05844948 34.06680781 24.05387071 37.86055058 24.04882812 41.65429688 C24.03809158 49.10288231 24.0210157 56.55143572 24 64 C24.72316406 63.45859375 24.72316406 63.45859375 25.4609375 62.90625 C26.09257813 62.4421875 26.72421875 61.978125 27.375 61.5 C28.00148438 61.0359375 28.62796875 60.571875 29.2734375 60.09375 C31 59 31 59 33 59 C33.09796875 58.3915625 33.1959375 57.783125 33.296875 57.15625 C34.39060901 53.80213237 36.48282758 52.94013622 39.44921875 51.23828125 C53.47473915 44.42956767 66.98872402 44.67432896 81.66015625 48.83203125 C84.94309783 49.98010088 87.93145883 51.36998346 91 53 C91 53.66 91 54.32 91 55 C91.556875 55.0825 92.11375 55.165 92.6875 55.25 C97.27790552 56.73878017 100.81334469 60.47191733 104 64 C104.33 64.99 104.66 65.98 105 67 C105.598125 67.53625 106.19625 68.0725 106.8125 68.625 C109.37827059 71.41069378 110.54322391 74.11358254 111.97265625 77.5859375 C112.99790816 80.09104069 112.99790816 80.09104069 114.45996094 82.74780273 C119.21245235 92.78393751 119.45593709 103.90554358 119.3125 114.8125 C119.31572266 116.05708984 119.31894531 117.30167969 119.32226562 118.58398438 C119.28284561 125.34630798 118.81948074 131.4897074 117 138 C116.8337915 138.68360596 116.66758301 139.36721191 116.49633789 140.0715332 C112.71285961 155.5993678 105.53693403 171.32507021 91.59765625 180.2890625 C81.53664698 186.33989901 73.50652131 189.55898952 61.75 189.4375 C60.22137329 189.42614014 60.22137329 189.42614014 58.66186523 189.41455078 C47.48682475 189.16996566 38.28525815 186.82496603 30 179 C28.23504803 177.05855283 26.62267464 175.06522227 25 173 C24.67 173 24.34 173 24 173 C23.67 177.29 23.34 181.58 23 186 C15.41 186 7.82 186 0 186 C0 124.62 0 63.24 0 0 Z " fill="#020202" transform="translate(566,225)"/>
<path d="M0 0 C5.84711144 5.55852011 9.27488464 12.36955804 9.58226013 20.41319275 C9.59678012 21.96805067 9.6060085 23.52296342 9.61108398 25.07788086 C9.617771 25.92874771 9.62445801 26.77961456 9.63134766 27.65626526 C9.64538151 29.50160742 9.65728084 31.34696678 9.66729546 33.19233513 C9.68372694 36.11352169 9.70696503 39.03458069 9.73219299 41.95570374 C9.8029149 50.26036206 9.86311101 58.56507177 9.91430664 66.86987305 C9.94610934 71.95145519 9.9873853 77.03288917 10.03450203 82.11435127 C10.05051066 84.04999693 10.06283749 85.98567668 10.07140923 87.92136955 C10.08357234 90.62864091 10.10772567 93.33556416 10.13452148 96.04272461 C10.13511063 96.84132904 10.13569977 97.63993347 10.13630676 98.46273804 C10.19441532 102.8966018 10.73859889 105.37774722 12.4375 109.625 C17.8825 110.12 17.8825 110.12 23.4375 110.625 C23.4375 115.905 23.4375 121.185 23.4375 126.625 C15.23158257 128.96954784 5.99455109 130.70473814 -2.125 127 C-8.60699378 123.03878158 -11.2821944 117.58593289 -13.5625 110.625 C-14.21992187 111.26115234 -14.21992187 111.26115234 -14.890625 111.91015625 C-28.8449767 124.81509532 -45.66971242 130.47902026 -64.5 129.75683594 C-77.25132963 128.94176515 -86.2402649 125.46705723 -94.9375 116.125 C-98.42587676 111.98342122 -101.38706648 108.31498064 -101.75 102.75 C-101.688125 102.04875 -101.62625 101.3475 -101.5625 100.625 C-102.2225 100.625 -102.8825 100.625 -103.5625 100.625 C-103.98150446 89.49810389 -104.18811779 79.97068979 -99.5625 69.625 C-98.9025 69.625 -98.2425 69.625 -97.5625 69.625 C-97.48 68.903125 -97.3975 68.18125 -97.3125 67.4375 C-96.00772476 62.54459286 -92.76847583 59.30153007 -88.5625 56.625 C-86.8989521 55.95058869 -85.23183058 55.2849679 -83.5625 54.625 C-82.469375 53.944375 -81.37625 53.26375 -80.25 52.5625 C-76.35980478 50.2706676 -73.03353282 50.05081265 -68.5625 49.625 C-67.14710938 49.13386719 -67.14710938 49.13386719 -65.703125 48.6328125 C-62.47504257 47.5969353 -59.75164012 47.29278336 -56.375 47.125 C-51.33623122 46.80083542 -46.54483375 46.14038324 -41.59765625 45.1640625 C-37.13080526 44.37072217 -32.63673242 43.84840375 -28.1315918 43.32250977 C-22.79505984 42.7477695 -22.79505984 42.7477695 -17.5625 41.625 C-16.22346786 39.27745602 -16.22346786 39.27745602 -15.5625 36.625 C-15.2325 35.635 -14.9025 34.645 -14.5625 33.625 C-14.49220879 31.05234182 -14.46879168 28.50858569 -14.5 25.9375 C-14.50451172 25.23560547 -14.50902344 24.53371094 -14.51367188 23.81054688 C-14.52543073 22.08199462 -14.54336546 20.35348635 -14.5625 18.625 C-15.2225 18.625 -15.8825 18.625 -16.5625 18.625 C-16.9646875 17.696875 -16.9646875 17.696875 -17.375 16.75 C-18.51806848 14.3254767 -18.51806848 14.3254767 -21.5625 12.625 C-21.5625 11.965 -21.5625 11.305 -21.5625 10.625 C-22.34625 10.50125 -23.13 10.3775 -23.9375 10.25 C-25.88803543 9.91370079 -27.83763415 9.56109473 -29.765625 9.11328125 C-41.10879356 6.53362517 -52.46705712 6.91266705 -63.5625 10.625 C-67.80704339 13.32167571 -69.46691488 15.84383754 -71.25 20.5 C-71.64574219 21.50804687 -72.04148437 22.51609375 -72.44921875 23.5546875 C-73.53886435 26.55981536 -74.55165278 29.59245834 -75.5625 32.625 C-82.8225 32.625 -90.0825 32.625 -97.5625 32.625 C-97.25289583 23.13047222 -95.73464646 16.13216952 -91.5625 7.625 C-91.28792969 6.94566406 -91.01335937 6.26632812 -90.73046875 5.56640625 C-87.13334326 -2.38979742 -77.73026126 -6.0704398 -70.125 -9.1875 C-47.40315785 -17.31390002 -19.25139888 -15.44421925 0 0 Z " fill="#030403" transform="translate(534.5625,284.375)"/>
<path d="M0 0 C2.14192726 -0.00962772 4.28286117 -0.04065018 6.42456055 -0.07226562 C19.01885634 -0.17009906 29.58809376 1.98717097 40.61010742 8.24023438 C41.66198242 8.79710937 42.71385742 9.35398437 43.79760742 9.92773438 C49.61142004 14.7079803 53.64033202 20.9921029 55.61010742 28.24023438 C55.8947227 31.23731662 55.90079967 34.21828414 55.8972168 37.22729492 C55.90404984 38.11092712 55.91088287 38.99455933 55.91792297 39.90496826 C55.93146838 41.81520245 55.94054894 43.72547246 55.94563293 45.63574791 C55.9539412 48.65742432 55.97446154 51.67880132 55.99816895 54.70039368 C56.05449834 62.20014124 56.08983998 69.69996122 56.12579346 77.1998291 C56.15700527 83.54686497 56.19615731 89.89375378 56.24604797 96.24067116 C56.26614474 99.220419 56.27443977 102.20005381 56.28234863 105.17985535 C56.29531645 107.00036028 56.30883608 108.82086139 56.32299805 110.64135742 C56.32201614 111.47206253 56.32103424 112.30276764 56.32002258 113.15864563 C56.36216194 117.03551771 56.40987965 118.93989272 58.61010742 122.24023438 C61.26578022 122.8237219 61.26578022 122.8237219 64.23510742 122.92773438 C66.00885742 123.03085937 67.78260742 123.13398438 69.61010742 123.24023438 C69.61010742 128.52023437 69.61010742 133.80023438 69.61010742 139.24023438 C61.72448261 141.86877598 53.13317277 142.71801636 45.04760742 140.11523438 C40.01527545 137.37032602 37.77869037 133.9931088 34.61010742 129.24023438 C34.35250463 126.54570916 34.52110689 123.95475063 34.61010742 121.24023438 C33.95010742 121.24023438 33.29010742 121.24023438 32.61010742 121.24023438 C32.38323242 121.81902344 32.15635742 122.3978125 31.92260742 122.99414062 C26.38110832 132.47736082 11.6405174 137.89676438 1.61010742 141.24023438 C-11.83510437 144.12711919 -27.94807676 143.99780294 -39.86254883 136.73242188 C-48.15556349 130.77917262 -54.18244909 123.29449352 -56.38989258 113.24023438 C-56.74513254 109.08358194 -56.72098253 104.97126485 -56.63989258 100.80273438 C-56.63473633 99.71541016 -56.62958008 98.62808594 -56.62426758 97.5078125 C-56.54504139 89.55053199 -56.54504139 89.55053199 -55.38989258 87.24023438 C-54.72989258 87.24023438 -54.06989258 87.24023438 -53.38989258 87.24023438 C-53.27645508 86.50546875 -53.16301758 85.77070313 -53.04614258 85.01367188 C-51.31904204 77.71461603 -45.92817102 72.04029386 -39.94458008 67.80273438 C-28.04463338 60.52447952 -15.34502886 59.93045535 -1.75219727 58.59179688 C3.48818229 58.04386291 8.70410931 57.33949893 13.92260742 56.61523438 C15.28180298 56.43033447 15.28180298 56.43033447 16.66845703 56.24169922 C20.67756933 55.68774065 24.65343787 55.10499102 28.61010742 54.24023438 C28.94010742 53.25023437 29.27010742 52.26023437 29.61010742 51.24023438 C30.27010742 51.24023438 30.93010742 51.24023438 31.61010742 51.24023438 C31.63737669 48.88598762 31.65707461 46.53206476 31.67260742 44.17773438 C31.68420898 42.86675781 31.69581055 41.55578125 31.70776367 40.20507812 C31.61514478 36.44475115 31.34958009 32.92823731 30.61010742 29.24023438 C28.70998973 27.99848642 28.70998973 27.99848642 26.61010742 27.24023438 C26.32135742 26.55960937 26.03260742 25.87898438 25.73510742 25.17773438 C25.17823242 24.21867187 25.17823242 24.21867187 24.61010742 23.24023438 C21.96799799 22.51870045 21.96799799 22.51870045 18.61010742 22.24023438 C17.06718762 21.89156744 15.52562678 21.53685866 13.98510742 21.17773438 C2.76677494 18.93743675 -9.49932889 19.49083479 -19.70239258 25.04492188 C-24.19490908 28.22712107 -26.0259755 33.09931615 -27.38989258 38.24023438 C-27.73772481 40.57145043 -28.07278133 42.90464109 -28.38989258 45.24023438 C-30.1784668 45.33111328 -30.1784668 45.33111328 -32.00317383 45.42382812 C-33.56959182 45.50824586 -35.13599746 45.59289325 -36.70239258 45.67773438 C-37.48807617 45.71705078 -38.27375977 45.75636719 -39.08325195 45.796875 C-39.84057617 45.83876953 -40.59790039 45.88066406 -41.37817383 45.92382812 C-42.07467041 45.96048584 -42.77116699 45.99714355 -43.48876953 46.03491211 C-45.61154978 46.1960459 -45.61154978 46.1960459 -48.38989258 47.24023438 C-49.37989258 46.58023438 -50.36989258 45.92023438 -51.38989258 45.24023438 C-51.10572657 42.86412283 -50.81280357 40.48962941 -50.51489258 38.11523438 C-50.39694336 37.1175 -50.39694336 37.1175 -50.27661133 36.09960938 C-49.74601232 31.93644794 -48.84802704 28.17352146 -47.38989258 24.24023438 C-46.72989258 24.24023438 -46.06989258 24.24023438 -45.38989258 24.24023438 C-45.23520508 23.12455078 -45.23520508 23.12455078 -45.07739258 21.98632812 C-43.33385445 15.02208208 -36.62220854 10.21407619 -30.79223633 6.55664062 C-20.61030924 0.9772757 -11.43470212 0.03099885 0 0 Z " fill="#030303" transform="translate(121.389892578125,271.759765625)"/>
<path d="M0 0 C5.71502051 5.28852644 8.84730612 12.2616356 9.15148926 19.95788574 C9.16905359 21.53372571 9.18132757 23.10962997 9.18945312 24.68554688 C9.20189308 25.97888695 9.20189308 25.97888695 9.21458435 27.2983551 C9.23196331 29.16825034 9.24713599 31.03816708 9.26036072 32.90809631 C9.28141407 35.86680738 9.30843449 38.82541051 9.33703613 41.78405762 C9.40682105 49.13147606 9.46624876 56.47897192 9.52606201 63.82647705 C9.57701134 70.0367132 9.63184487 76.24689134 9.69187927 82.45704651 C9.71844704 85.37299879 9.73926482 88.28895654 9.7598877 91.20495605 C9.77649159 92.99145773 9.79336351 94.77795693 9.81054688 96.56445312 C9.81473129 97.37600357 9.81891571 98.18755402 9.82322693 99.0236969 C9.86330153 102.61911656 10.12176833 105.61207331 11 109.125 C15.29 109.125 19.58 109.125 24 109.125 C24 114.735 24 120.345 24 126.125 C15.72914698 128.88195101 5.92194315 129.94892176 -2.31640625 126.24609375 C-6.46481979 123.48369308 -9.43203596 119.82889213 -11 115.125 C-11.03954234 112.79200175 -11.04401732 110.45791811 -11 108.125 C-11.46148438 108.54910156 -11.92296875 108.97320313 -12.3984375 109.41015625 C-26.56986194 122.15323554 -40.57841559 129.47588203 -59.8125 129.5 C-60.82892578 129.52449219 -61.84535156 129.54898438 -62.89257812 129.57421875 C-74.96973226 129.6204029 -84.29628068 125.62266237 -92.90625 117.27734375 C-100.52638388 109.15673498 -102.7206576 101.33052306 -102.5625 90.3125 C-102.55299316 89.25168213 -102.54348633 88.19086426 -102.53369141 87.09790039 C-102.25936543 76.78371935 -100.03897085 68.32027634 -92.72265625 60.6484375 C-79.44600032 48.90717716 -62.13108279 47.77269977 -45.1875 46.0625 C-44.3931958 45.98161133 -43.5988916 45.90072266 -42.78051758 45.81738281 C-41.61685669 45.6989502 -41.61685669 45.6989502 -40.4296875 45.578125 C-26.69070995 44.68202608 -26.69070995 44.68202608 -15 38.125 C-12.92129678 31.88889035 -12.74593634 23.80395666 -14.8828125 17.53515625 C-18.49653232 11.89818611 -24.39277574 9.04202504 -30.77539062 7.50878906 C-35.39158164 6.71240492 -40.0114735 6.57189854 -44.6875 6.5 C-45.64906006 6.47679687 -46.61062012 6.45359375 -47.60131836 6.4296875 C-55.34876383 6.51470019 -62.18976116 8.49893161 -67.91430664 13.94677734 C-72.54172354 19.23504189 -73.61954219 25.37609513 -75 32.125 C-82.26 32.125 -89.52 32.125 -97 32.125 C-96.11809111 18.36722132 -93.373856 7.50164313 -82.60546875 -1.984375 C-59.53932911 -18.98430154 -22.28737463 -17.24389546 0 0 Z " fill="#030303" transform="translate(702,474.875)"/>
<path d="M0 0 C6.60343764 5.63732384 14.03991507 12.58344339 15.21484375 21.5859375 C15.23546875 22.6996875 15.25609375 23.8134375 15.27734375 24.9609375 C15.93734375 24.9609375 16.59734375 24.9609375 17.27734375 24.9609375 C18.09930981 26.97793909 18.90947592 28.99975119 19.71484375 31.0234375 C20.16730469 32.14878906 20.61976563 33.27414062 21.0859375 34.43359375 C24.77787551 45.3641512 23.27734375 56.36957468 23.27734375 67.9609375 C-9.06265625 67.9609375 -41.40265625 67.9609375 -74.72265625 67.9609375 C-73.53103309 84.64366172 -71.62464267 94.0111154 -60.10546875 105.5859375 C-52.88025733 111.62492018 -41.77903459 112.58434794 -32.703125 112.30859375 C-22.10202171 111.07202993 -14.38424184 106.62252309 -6.97265625 99.2109375 C-3.94556816 95.09674508 -3.94556816 95.09674508 -0.72265625 85.9609375 C6.53734375 85.9609375 13.79734375 85.9609375 21.27734375 85.9609375 C21.27734375 97.75954584 14.46209575 108.33345921 6.4765625 116.890625 C-8.17032225 130.53679091 -23.84577823 132.67699718 -43.01953125 132.2421875 C-57.06905292 131.69230407 -70.20502388 127.26400349 -80.5625 117.4140625 C-96.1954464 99.66091541 -101.04211653 77.89028897 -99.92529297 54.75097656 C-98.55159942 35.83703696 -91.82582547 18.50280273 -79.91015625 3.7109375 C-76.45001984 0.94282837 -72.66098455 -1.03045438 -68.72265625 -3.0390625 C-67.48322266 -3.69455078 -67.48322266 -3.69455078 -66.21875 -4.36328125 C-45.44394873 -14.67327949 -18.86243776 -14.12653158 0 0 Z " fill="#030303" transform="translate(790.72265625,282.0390625)"/>
<path d="M0 0 C10.73369028 10.25019072 16.6451523 22.8626832 19.9140625 37.171875 C20.13449219 38.038125 20.35492187 38.904375 20.58203125 39.796875 C22.67311394 48.83658651 22.1640625 55.79386707 22.1640625 65.671875 C-10.5059375 65.671875 -43.1759375 65.671875 -76.8359375 65.671875 C-74.04918339 86.88525419 -74.04918339 86.88525419 -61.5390625 103.40234375 C-50.55305339 109.92747336 -39.6830813 111.31641465 -27.0234375 108.984375 C-18.43485219 106.67390214 -11.80764576 102.04924854 -6.8359375 94.671875 C-4.95314634 91.05882259 -3.39270651 87.44586049 -1.8359375 83.671875 C5.0940625 83.671875 12.0240625 83.671875 19.1640625 83.671875 C18.40700632 90.48538062 17.76855964 94.74809212 14.7890625 100.546875 C14.25949951 101.57832642 14.25949951 101.57832642 13.71923828 102.63061523 C6.65500452 115.67098988 -4.03321723 122.61540265 -17.73828125 127.76171875 C-34.67721116 132.6956084 -54.86516591 131.62750025 -70.421875 123.28515625 C-72.69435681 121.86970256 -74.7515975 120.35048469 -76.8359375 118.671875 C-77.59390625 118.08664062 -78.351875 117.50140625 -79.1328125 116.8984375 C-91.49173871 106.73757535 -98.23980156 90.59846309 -100.59375 74.9375 C-102.35487536 51.19071292 -99.76214862 29.45465165 -85.8359375 9.671875 C-85.31515625 8.92292969 -84.794375 8.17398437 -84.2578125 7.40234375 C-76.76125673 -2.19551931 -63.15072067 -10.02038014 -51.16015625 -11.90625 C-32.437416 -14.00207913 -15.08811687 -12.38638795 0 0 Z " fill="#030303" transform="translate(1074.8359375,474.328125)"/>
<path d="M0 0 C0.85851562 0.37511719 1.71703125 0.75023437 2.6015625 1.13671875 C13.17946055 6.08243214 19.8196069 12.88564089 24.140625 23.91015625 C26.005236 30.61428036 26.1405097 37.16668115 26.11352539 44.06616211 C26.11367142 45.05229492 26.11381744 46.03842773 26.1139679 47.05444336 C26.1132744 50.29543298 26.10550845 53.53636424 26.09765625 56.77734375 C26.09579007 59.03178374 26.09436711 61.28622413 26.09336853 63.54066467 C26.08955912 69.46059295 26.07974232 75.3804965 26.06866455 81.30041504 C26.05841651 87.34675767 26.05386365 93.39310431 26.04882812 99.43945312 C26.0381186 111.29298133 26.02053459 123.14648474 26 135 C18.74 135 11.48 135 4 135 C3.98541748 132.31141846 3.97083496 129.62283691 3.95581055 126.8527832 C3.9052699 117.92800183 3.83864141 109.00339137 3.76428509 100.07877827 C3.71972928 94.67257008 3.68044119 89.2664347 3.65356445 83.86010742 C3.62738316 78.63390768 3.58687781 73.40799035 3.53681374 68.18196678 C3.52024467 66.19712041 3.50866884 64.2122253 3.50238609 62.22731972 C4.02180103 42.40590141 4.02180103 42.40590141 -4 25 C-10.88194633 18.30405222 -19.45211745 18.50981986 -28.50073242 18.49584961 C-35.70802057 18.66614225 -40.54079616 20.1148791 -46 25 C-46.6496875 25.52980469 -47.299375 26.05960937 -47.96875 26.60546875 C-55.21781563 33.0712667 -59.29767112 42.48539071 -60.19638443 52.10122681 C-60.2827155 54.33679197 -60.312615 56.56551543 -60.31884766 58.80273438 C-60.32889328 59.64270966 -60.3389389 60.48268494 -60.34928894 61.34811401 C-60.37993087 64.09665302 -60.39710279 66.84509549 -60.4140625 69.59375 C-60.43278946 71.51046569 -60.45236399 73.42717328 -60.4727478 75.34387207 C-60.52391363 80.36774904 -60.56362229 85.39165269 -60.60089111 90.41564941 C-60.64102858 95.5506034 -60.69207634 100.68544788 -60.7421875 105.8203125 C-60.8387626 115.88013878 -60.92221658 125.94001086 -61 136 C-68.59 136 -76.18 136 -84 136 C-84 91.45 -84 46.9 -84 1 C-76.74 1 -69.48 1 -62 1 C-61.505 9.415 -61.505 9.415 -61 18 C-59.4840625 16.205625 -59.4840625 16.205625 -57.9375 14.375 C-43.7064809 -1.72702958 -20.5203734 -9.29713668 0 0 Z " fill="#030202" transform="translate(818,465)"/>
<path d="M0 0 C2.29481841 1.68827549 4.30075336 3.44976151 6.3203125 5.45703125 C6.96613281 6.08867187 7.61195313 6.7203125 8.27734375 7.37109375 C17.48234954 17.09933145 19.6487959 28.84417569 19.54736328 41.84204102 C19.54765533 42.83821945 19.54794739 43.83439789 19.54824829 44.86076355 C19.54686516 48.12341299 19.53135207 51.3858284 19.515625 54.6484375 C19.51189125 56.92243831 19.50904599 59.19644073 19.50704956 61.47044373 C19.4994416 67.43312075 19.47981757 73.39569914 19.4576416 79.3583374 C19.43712192 85.45176866 19.42803478 91.54521597 19.41796875 97.63867188 C19.3965689 109.57817513 19.36140999 121.51757953 19.3203125 133.45703125 C11.7303125 133.45703125 4.1403125 133.45703125 -3.6796875 133.45703125 C-3.6890332 130.57621826 -3.69837891 127.69540527 -3.70800781 124.72729492 C-3.74186445 115.17982684 -3.7974617 105.63257293 -3.86359024 96.0852766 C-3.90299977 90.30008543 -3.93522033 84.515045 -3.95068359 78.72973633 C-3.96589301 73.14040283 -4.00041488 67.55148392 -4.04799652 61.96233559 C-4.06276613 59.83628263 -4.07072596 57.71017048 -4.07157135 55.58406639 C-3.66053277 37.91528982 -3.66053277 37.91528982 -11.1796875 22.45703125 C-12.0046875 21.79703125 -12.8296875 21.13703125 -13.6796875 20.45703125 C-14.3190625 19.87953125 -14.9584375 19.30203125 -15.6171875 18.70703125 C-20.65112146 15.65616218 -27.32312621 16.21212042 -33.0546875 16.14453125 C-34.27285156 16.10102539 -34.27285156 16.10102539 -35.515625 16.05664062 C-43.99737475 15.96828907 -49.9760574 19.26216066 -56.15234375 24.90625 C-68.13507666 37.07286116 -67.98612536 55.82425369 -68.09375 71.71484375 C-68.11248935 73.47175986 -68.13206476 75.22866723 -68.1524353 76.98556519 C-68.20347048 81.57868262 -68.24324816 86.17182915 -68.28057861 90.76507568 C-68.32079901 95.46454901 -68.3718085 100.16390433 -68.421875 104.86328125 C-68.51829494 114.06112272 -68.60180796 123.25901409 -68.6796875 132.45703125 C-75.9396875 132.45703125 -83.1996875 132.45703125 -90.6796875 132.45703125 C-90.6796875 88.23703125 -90.6796875 44.01703125 -90.6796875 -1.54296875 C-83.7496875 -1.54296875 -76.8196875 -1.54296875 -69.6796875 -1.54296875 C-69.6796875 4.39703125 -69.6796875 10.33703125 -69.6796875 16.45703125 C-69.0196875 16.45703125 -68.3596875 16.45703125 -67.6796875 16.45703125 C-67.4321875 15.88726562 -67.1846875 15.3175 -66.9296875 14.73046875 C-61.88826731 5.56138579 -51.82104304 -0.82589792 -42.2421875 -4.41796875 C-29.07226001 -7.87611009 -11.85662291 -6.82706421 0 0 Z " fill="#030202" transform="translate(568.6796875,467.54296875)"/>
<path d="M0 0 C1.46711426 0.00737183 1.46711426 0.00737183 2.96386719 0.01489258 C17.95009065 0.25769032 30.05895215 4.47702942 41.05078125 14.84765625 C44.53446806 18.64421303 47.00099615 22.72788938 49.3125 27.3125 C49.89 28.446875 50.4675 29.58125 51.0625 30.75 C53.18204269 36.79069666 54.3125 42.91108229 54.3125 49.3125 C46.7225 49.3125 39.1325 49.3125 31.3125 49.3125 C30.3225 44.8575 30.3225 44.8575 29.3125 40.3125 C28.39805462 37.89443145 28.39805462 37.89443145 27.3125 36 C26.8175 35.07767578 26.8175 35.07767578 26.3125 34.13671875 C25.9825 33.53472656 25.6525 32.93273437 25.3125 32.3125 C25.02375 31.61769531 24.735 30.92289062 24.4375 30.20703125 C23.02799615 27.83338761 21.83476925 27.35843183 19.3125 26.3125 C18.68214844 25.95929688 18.05179688 25.60609375 17.40234375 25.2421875 C8.44156099 20.85124132 -3.07733793 20.7113338 -12.703125 23.04296875 C-14.89754878 23.95731199 -16.73524164 24.96334205 -18.6875 26.3125 C-20.234375 27.3334375 -20.234375 27.3334375 -21.8125 28.375 C-30.87484894 36.70732639 -35.11232661 48.46513955 -35.89453125 60.49707031 C-36.40002886 73.47752692 -36.86946538 86.85673244 -32.6875 99.3125 C-32.4090625 100.15167969 -32.130625 100.99085938 -31.84375 101.85546875 C-28.38216986 110.76306938 -22.68672584 116.36398303 -14.1171875 120.40234375 C-5.11753831 123.77359497 4.6166064 123.24188218 13.3125 119.3125 C22.05691144 114.76540605 26.57313119 106.87068516 29.5859375 97.79296875 C30.21434451 95.64760074 30.77030949 93.48126202 31.3125 91.3125 C38.5725 91.3125 45.8325 91.3125 53.3125 91.3125 C52.63041873 98.13331268 52.09144748 103.18065836 49.6875 109.3125 C49.28990479 110.34105103 49.28990479 110.34105103 48.88427734 111.39038086 C44.30443291 122.73584388 37.14456677 131.72008321 26 137.0625 C24.11508997 137.83954454 22.21919106 138.59054902 20.3125 139.3125 C19.11947266 139.79396484 19.11947266 139.79396484 17.90234375 140.28515625 C4.24795801 144.93760147 -13.40717189 143.76730885 -26.5 138.09375 C-40.74876931 130.96936535 -51.11196448 119.11650809 -56.6875 104.3125 C-57.08195313 103.34054687 -57.47640625 102.36859375 -57.8828125 101.3671875 C-65.02820088 80.23082886 -62.52179465 52.77028285 -53 32.875 C-49.52033537 26.09379936 -45.20957405 20.59140015 -39.6875 15.3125 C-39.16027344 14.75433594 -38.63304687 14.19617188 -38.08984375 13.62109375 C-28.33063132 4.06155831 -13.21302775 -0.07786974 0 0 Z " fill="#030303" transform="translate(915.6875,461.6875)"/>
<path d="M0 0 C7.74980176 5.92016897 13.2524082 15.10515374 14.60571289 24.85351562 C16.89185702 47.02934071 17.54285548 70.03856132 2.94140625 88.20703125 C-0.47841183 91.89862295 -4.03670809 93.94156381 -8.68359375 95.76953125 C-9.59109375 96.18203125 -10.49859375 96.59453125 -11.43359375 97.01953125 C-21.61539892 99.3691786 -30.49879779 97.59743682 -39.68359375 92.76953125 C-49.28266379 86.41805077 -54.09765758 77.59374401 -56.55859375 66.51953125 C-59.74656282 48.40566812 -59.30452995 28.31122609 -50.68359375 11.76953125 C-50.02359375 11.76953125 -49.36359375 11.76953125 -48.68359375 11.76953125 C-48.59078125 10.96515625 -48.59078125 10.96515625 -48.49609375 10.14453125 C-46.26405654 3.62011478 -40.6249989 -0.26567215 -34.68359375 -3.23046875 C-23.84378464 -6.42754278 -9.64847065 -5.86045088 0 0 Z " fill="#4D4D4D" transform="translate(645.68359375,297.23046875)"/>
<path d="M0 0 C0.98484375 -0.00128906 1.9696875 -0.00257813 2.984375 -0.00390625 C4.02078125 -0.00003906 5.0571875 0.00382813 6.125 0.0078125 C7.67960938 0.00201172 7.67960938 0.00201172 9.265625 -0.00390625 C10.25046875 -0.00261719 11.2353125 -0.00132812 12.25 0 C13.16007813 0.00112793 14.07015625 0.00225586 15.0078125 0.00341797 C17.125 0.1328125 17.125 0.1328125 18.125 1.1328125 C18.29741372 3.7009396 18.40887861 6.24488216 18.4765625 8.81640625 C18.49971527 9.58710953 18.52286804 10.35781281 18.54672241 11.15187073 C18.59442699 12.78517929 18.63965301 14.41856182 18.68261719 16.05200195 C18.74962863 18.55643316 18.82740452 21.06036981 18.90625 23.56445312 C18.95117228 25.14841916 18.9954641 26.73240322 19.0390625 28.31640625 C19.06296051 29.0685289 19.08685852 29.82065155 19.11148071 30.5955658 C19.23986754 35.90307741 19.23986754 35.90307741 18.125 38.1328125 C25.385 38.1328125 32.645 38.1328125 40.125 38.1328125 C40.8489633 42.4765923 41.2608699 46.05659136 41.25 50.3828125 C41.25386719 51.93742187 41.25386719 51.93742187 41.2578125 53.5234375 C41.125 56.1328125 41.125 56.1328125 40.125 58.1328125 C29.73 58.6278125 29.73 58.6278125 19.125 59.1328125 C19.01204878 70.91136573 18.92031227 82.68955941 18.86593914 94.46853161 C18.83984303 99.93796595 18.80444412 105.40701063 18.74780273 110.8762207 C18.69348437 116.15414066 18.66357957 121.43168577 18.65061378 126.70986366 C18.64137365 128.72374689 18.6233297 130.73760955 18.59634972 132.75133324 C18.56006187 135.57189674 18.55505455 138.39091063 18.55737305 141.21166992 C18.53939667 142.04461075 18.52142029 142.87755157 18.50289917 143.73573303 C18.54074035 147.98908139 18.75955272 149.6539911 21.42488098 153.14619446 C24.87444121 155.68421539 27.80554458 155.90785184 31.9375 155.9453125 C34.309375 156.0071875 36.68125 156.0690625 39.125 156.1328125 C39.125 162.0728125 39.125 168.0128125 39.125 174.1328125 C12.52158444 177.45823944 12.52158444 177.45823944 4.125 171.1328125 C-1.09768074 166.54845941 -4.32755351 160.78956086 -5.14668846 153.82174683 C-5.24156841 151.25533783 -5.24645584 148.70470484 -5.21557617 146.13671875 C-5.21601425 145.16994705 -5.21645233 144.20317535 -5.21690369 143.20710754 C-5.21482662 140.03629818 -5.1915466 136.86602862 -5.16796875 133.6953125 C-5.16236895 131.48714486 -5.15810067 129.27897349 -5.15510559 127.07080078 C-5.1436871 121.27738029 -5.11424562 115.48418777 -5.08099365 109.69085693 C-5.05022817 103.77180057 -5.03658642 97.85270714 -5.02148438 91.93359375 C-4.98937307 80.3332174 -4.93662953 68.73306963 -4.875 57.1328125 C-10.815 57.1328125 -16.755 57.1328125 -22.875 57.1328125 C-22.875 50.8628125 -22.875 44.5928125 -22.875 38.1328125 C-17.265 38.1328125 -11.655 38.1328125 -5.875 38.1328125 C-5.88660156 35.47347656 -5.89820313 32.81414062 -5.91015625 30.07421875 C-5.91794652 27.50935994 -5.92402345 24.94450243 -5.92993164 22.37963867 C-5.93497218 20.59187229 -5.94180454 18.80411005 -5.95043945 17.01635742 C-5.9625173 14.45230082 -5.96823094 11.88829853 -5.97265625 9.32421875 C-5.97781754 8.5200502 -5.98297882 7.71588165 -5.98829651 6.88734436 C-5.98849215 4.96879535 -5.93701983 3.05035882 -5.875 1.1328125 C-4.22105883 -0.52112867 -2.27184587 0.00281567 0 0 Z " fill="#030303" transform="translate(836.875,236.8671875)"/>
<path d="M0 0 C7.26 0 14.52 0 22 0 C22 60.72 22 121.44 22 184 C14.74 184 7.48 184 0 184 C0 123.28 0 62.56 0 0 Z " fill="#000000" transform="translate(200,226)"/>
<path d="M0 0 C7.59 0 15.18 0 23 0 C23 44.55 23 89.1 23 135 C15.41 135 7.82 135 0 135 C0 90.45 0 45.9 0 0 Z " fill="#030303" transform="translate(435,466)"/>
<path d="M0 0 C0.11751438 4.12475481 0.18768824 8.24907118 0.25 12.375 C0.28351563 13.53128906 0.31703125 14.68757813 0.3515625 15.87890625 C0.45061668 24.64520143 -1.08926109 31.18608564 -5.625 38.6875 C-16.22309597 49.00669871 -27.75782888 53.40399894 -42.3125 53.625 C-43.24352539 53.64812256 -44.17455078 53.67124512 -45.13378906 53.69506836 C-51.52523444 53.62246428 -56.15497518 52.30285745 -61 48 C-62.68959802 45.72224687 -63.77809234 43.59044425 -65 41 C-65.33 40.34 -65.66 39.68 -66 39 C-66.17778623 36.40024068 -66.27753022 33.85175193 -66.3125 31.25 C-66.34150391 30.54617188 -66.37050781 29.84234375 -66.40039062 29.1171875 C-66.46284234 23.94810685 -65.40494295 21.08950316 -62 17 C-53.19161393 8.99396197 -41.68769751 7.75658841 -30.3125 6.625 C-21.3948756 5.64130614 -13.30968643 3.95650487 -4.8515625 0.98828125 C-2 0 -2 0 0 0 Z " fill="#515050" transform="translate(521,342)"/>
<path d="M0 0 C0.17600241 4.45782504 0.28142818 8.91474337 0.375 13.375 C0.42527344 14.62667969 0.47554688 15.87835938 0.52734375 17.16796875 C0.69447622 27.80873592 -2.29744649 33.83804373 -9.125 41.75 C-17.57194504 49.69012833 -29.05137261 53.37298247 -40.4375 53.25 C-41.50581055 53.26160156 -41.50581055 53.26160156 -42.59570312 53.2734375 C-48.77663526 53.2509818 -54.77477801 52.77006295 -59.75 48.8125 C-66.15091671 40.81135411 -66.95927254 35.29700149 -66 25 C-65.17271365 20.37362196 -62.91266178 17.66407987 -59.3125 14.75 C-48.99622101 7.69741654 -36.56910761 7.00617705 -24.48046875 5.46484375 C-22.25559843 5.16769496 -20.03537051 4.83151613 -17.82421875 4.4453125 C-14.15358266 3.86654 -10.7110598 3.93601621 -7 4 C-7 3.34 -7 2.68 -7 2 C-2.25 0 -2.25 0 0 0 Z " fill="#505050" transform="translate(154,342)"/>
<path d="M0 0 C0.99 0 1.98 0 3 0 C3.14677671 4.29129925 3.23456586 8.58194224 3.3125 12.875 C3.35439453 14.07898438 3.39628906 15.28296875 3.43945312 16.5234375 C3.57301191 26.35336401 1.41225952 33.16169657 -4.9375 40.6875 C-14.52271764 49.57599477 -26.25338674 52.1687032 -38.875 52.375 C-40.16470703 52.43107422 -40.16470703 52.43107422 -41.48046875 52.48828125 C-47.87387636 52.57559638 -52.07368335 51.12449575 -57 47 C-61.85817694 41.11904897 -63.48037554 34.71297727 -63.23828125 27.1953125 C-62.51550384 20.53628126 -59.21850484 16.82509332 -54.42578125 12.578125 C-48.82009464 8.9312693 -42.64652365 7.53462516 -36.09765625 6.68359375 C-35.37565536 6.58160172 -34.65365448 6.47960968 -33.90977478 6.37452698 C-31.62844998 6.05355366 -29.34570515 5.74478469 -27.0625 5.4375 C-12.50721085 4.73430379 -12.50721085 4.73430379 0 0 Z " fill="#737373" transform="translate(685,533)"/>
<path d="M0 0 C9.16867684 5.85261018 14.38995125 14.55980501 17 25 C17 28.63 17 32.26 17 36 C-7.42 36 -31.84 36 -57 36 C-55.77243094 22.49674037 -53.10281057 13.36358053 -43 4 C-42.29875 3.319375 -41.5975 2.63875 -40.875 1.9375 C-28.44436204 -6.43966906 -13.42491893 -5.86247939 0 0 Z " fill="#464646" transform="translate(773,296)"/>
<path d="M0 0 C1.39545044 0.01244751 1.39545044 0.01244751 2.8190918 0.02514648 C12.56633846 0.26580867 19.63841496 2.52842433 26.8046875 9.33203125 C34.48986932 18.22111494 36.625 27.96627124 36.625 39.4375 C12.205 39.4375 -12.215 39.4375 -37.375 39.4375 C-36.21166788 26.64084672 -34.19900683 16.5797469 -24.4921875 7.71875 C-16.85234614 1.60687691 -9.59994128 -0.10976794 0 0 Z " fill="#6A6A6A" transform="translate(1036.375,482.5625)"/>
<path d="M0 0 C3 1 3 1 4.02734375 2.890625 C4.32769531 3.66921875 4.62804688 4.4478125 4.9375 5.25 C8.67872362 14.19209131 14.46879072 18.55935658 23.20703125 22.265625 C23.79871094 22.50796875 24.39039063 22.7503125 25 23 C24 26 24 26 21.9609375 27.140625 C21.10757812 27.50671875 20.25421875 27.8728125 19.375 28.25 C10.18960696 32.66580236 6.01767586 38.79822625 2 48 C-1 47 -1 47 -1.95703125 45.1796875 C-2.23933594 44.41914062 -2.52164062 43.65859375 -2.8125 42.875 C-6.27735523 34.65087194 -10.88500973 30.46611932 -19 27 C-20.33703944 26.34079763 -21.67142396 25.67609758 -23 25 C-22 22 -22 22 -19.3828125 20.53515625 C-17.21623958 19.55578216 -15.04957336 18.57661447 -12.8828125 17.59765625 C-9.97601193 15.9867058 -8.84195739 14.68184363 -7 12 C-6.34 12 -5.68 12 -5 12 C-4.731875 11.13375 -4.46375 10.2675 -4.1875 9.375 C-3.02888013 6.08208036 -1.61790161 3.08872125 0 0 Z " fill="#D0D0D0" transform="translate(1095,816)"/>
<path d="M0 0 C7.26 0 14.52 0 22 0 C22 8.25 22 16.5 22 25 C14.74 25 7.48 25 0 25 C0 16.75 0 8.5 0 0 Z " fill="#030303" transform="translate(435,416)"/>
<path d="M0 0 C7.59 0 15.18 0 23 0 C23 0.33 23 0.66 23 1 C15.74 1 8.48 1 1 1 C1 61.72 1 122.44 1 185 C7.93 185 14.86 185 22 185 C22 179.72 22 174.44 22 169 C22.99 169.99 23.98 170.98 25 172 C24.67 172.33 24.34 172.66 24 173 C23.76518307 175.18292774 23.58636677 177.37203174 23.4375 179.5625 C23.293125 181.686875 23.14875 183.81125 23 186 C15.41 186 7.82 186 0 186 C0 124.62 0 63.24 0 0 Z " fill="#242423" transform="translate(566,225)"/>
<path d="M0 0 C0.33 0 0.66 0 1 0 C1.02686553 1.97909398 1.04633375 3.95828971 1.0625 5.9375 C1.07410156 7.03964844 1.08570313 8.14179688 1.09765625 9.27734375 C1 12 1 12 0 13 C-1.41225046 13.0928726 -2.82908934 13.11746772 -4.24438477 13.11352539 C-5.14524307 13.11344986 -6.04610138 13.11337433 -6.97425842 13.11329651 C-7.95341721 13.10813522 -8.93257599 13.10297394 -9.94140625 13.09765625 C-10.93881332 13.0962413 -11.9362204 13.09482635 -12.96385193 13.09336853 C-16.16343124 13.08775114 -19.36294169 13.07519571 -22.5625 13.0625 C-24.72591045 13.05748724 -26.88932199 13.05292395 -29.05273438 13.04882812 C-34.36851629 13.03777606 -39.68424646 13.02049979 -45 13 C-45 16.96 -45 20.92 -45 25 C-43.90010742 24.98428955 -42.80021484 24.9685791 -41.66699219 24.95239258 C-37.58194313 24.89804697 -33.49692597 24.86363316 -29.41162109 24.83520508 C-27.64431381 24.82012898 -25.87704386 24.79966478 -24.10986328 24.77368164 C-21.56794005 24.73724598 -19.02651194 24.72026206 -16.484375 24.70703125 C-15.69569031 24.69154739 -14.90700562 24.67606354 -14.09442139 24.66011047 C-10.69433549 24.65907 -8.42190066 24.74683518 -5.46972656 26.51831055 C-4.74221191 27.25174683 -4.74221191 27.25174683 -4 28 C-4.99 28.33 -5.98 28.66 -7 29 C-7 28.34 -7 27.68 -7 27 C-7.57741943 27.03552979 -8.15483887 27.07105957 -8.74975586 27.10766602 C-21.3030365 27.85238376 -33.45949685 27.99003972 -46 27 C-46 22.05 -46 17.1 -46 12 C-43.69179492 10.84589746 -42.39215724 10.8789703 -39.82568359 10.88647461 C-38.53457169 10.88658791 -38.53457169 10.88658791 -37.21737671 10.88670349 C-36.28712677 10.89186478 -35.35687683 10.89702606 -34.3984375 10.90234375 C-33.44683746 10.9037587 -32.49523743 10.90517365 -31.51480103 10.90663147 C-28.46816903 10.91223988 -25.42160987 10.92479381 -22.375 10.9375 C-20.31250106 10.94251392 -18.25000097 10.94707701 -16.1875 10.95117188 C-11.12497183 10.96221204 -6.06249827 10.97948233 -1 11 C-0.67 7.37 -0.34 3.74 0 0 Z " fill="#252525" transform="translate(298,263)"/>
<path d="M0 0 C0.33 0 0.66 0 1 0 C1 6.6 1 13.2 1 20 C7.93 20 14.86 20 22 20 C22 14.72 22 9.44 22 4 C22.99 4.99 23.98 5.98 25 7 C24.67 7.33 24.34 7.66 24 8 C23.76518307 10.18292774 23.58636677 12.37203174 23.4375 14.5625 C23.293125 16.686875 23.14875 18.81125 23 21 C15.41 21 7.82 21 0 21 C0 14.07 0 7.14 0 0 Z " fill="#333434" transform="translate(566,390)"/>
<path d="M0 0 C0.66 0.33 1.32 0.66 2 1 C-4.6 7.6 -11.2 14.2 -18 21 C-18 16.81116298 -15.67400903 15.0691572 -12.9375 12.1875 C-12.43887451 11.65286133 -11.94024902 11.11822266 -11.42651367 10.56738281 C-7.83096005 6.75766304 -4.0942029 3.27536232 0 0 Z " fill="#111211" transform="translate(355,118)"/>
<path d="M0 0 C0.33 0.66 0.66 1.32 1 2 C7.93 2 14.86 2 22 2 C22.33 1.34 22.66 0.68 23 0 C23 0.99 23 1.98 23 3 C21.21142578 3.09087891 21.21142578 3.09087891 19.38671875 3.18359375 C17.82030075 3.26801149 16.25389512 3.35265887 14.6875 3.4375 C13.90181641 3.47681641 13.11613281 3.51613281 12.30664062 3.55664062 C11.54931641 3.59853516 10.79199219 3.64042969 10.01171875 3.68359375 C9.31522217 3.72025146 8.61872559 3.75690918 7.90112305 3.79467773 C5.7783428 3.95581153 5.7783428 3.95581153 3 5 C2.01 4.34 1.02 3.68 0 3 C0 2.01 0 1.02 0 0 Z " fill="#292929" transform="translate(70,314)"/>
<path d="M0 0 C0.99 0.99 1.98 1.98 3 3 C2.67 3.33 2.34 3.66 2 4 C1.76518307 6.18292774 1.58636677 8.37203174 1.4375 10.5625 C1.35371094 11.76003906 1.26992188 12.95757812 1.18359375 14.19140625 C1.12300781 15.11824219 1.06242188 16.04507812 1 17 C0.67 17 0.34 17 0 17 C0 11.39 0 5.78 0 0 Z " fill="#474847" transform="translate(588,394)"/>
</svg>
